<svg width="127" height="157" viewBox="0 0 127 157" fill="none" xmlns="http://www.w3.org/2000/svg">
<path d="M49.8525 101.211V101.123C49.8525 86.3799 42.2351 77.0884 30.1789 77.0884C18.1228 77.0884 10.4613 86.3359 10.4613 101.123V101.211C10.4613 115.998 18.1228 125.29 30.1789 125.29C42.2351 125.29 49.8525 115.867 49.8525 101.211ZM0.441406 101.211V101.123C0.441406 80.9574 11.9262 68.3684 30.1936 68.3684C48.4609 68.3684 59.9457 81.0014 59.9457 101.123V101.211C59.9457 121.377 48.5488 134.01 30.1936 134.01C11.8383 134.01 0.441406 121.421 0.441406 101.211Z" fill="#EE7149"/>
<path d="M116.439 101.211V101.123C116.439 86.3799 108.821 77.0884 96.7649 77.0884C84.7088 77.0884 77.0473 86.3359 77.0473 101.123V101.211C77.0473 115.998 84.7088 125.29 96.7649 125.29C108.821 125.29 116.439 115.867 116.439 101.211ZM67.0273 101.211V101.123C67.0273 80.9574 78.5122 68.3684 96.7795 68.3684C115.047 68.3684 126.532 81.0014 126.532 101.123V101.211C126.532 121.377 115.135 134.01 96.7795 134.01C78.4243 134.01 67.0273 121.421 67.0273 101.211Z" fill="#EE7149"/>
<path d="M63.1873 61.9792C51.9076 61.9792 40.6279 61.9792 29.3481 61.9792C27.224 61.9792 26.1254 61.4076 26.2572 59.2093C26.4769 55.4722 26.3011 51.7204 26.389 47.9686C26.4329 46.1806 25.8031 45.2867 23.6057 44.9789C18.8741 44.3194 14.494 42.7513 10.6706 40.0986C0.841125 33.2692 1.23663 22.3802 11.5642 16.1224C18.8594 11.7111 26.9603 10.5094 35.574 11.5792C37.1121 11.7697 38.1961 11.5792 39.119 10.4947C46.4875 1.97992 56.6539 0.0893739 67.9483 1.24715C75.639 2.03854 82.3043 4.66185 86.9041 10.5094C87.7098 11.5352 88.9257 11.418 90.1269 11.3594C97.261 10.9637 104.175 11.5499 110.562 14.7155C114.195 16.5181 117.125 18.9509 119.161 22.1604C122.867 28.0226 120.861 35.233 114.4 39.7762C111.031 42.1504 107.281 43.9091 103.047 44.5539C100.264 44.9642 99.473 46.0927 99.6341 48.4815C99.8685 52.2187 99.5902 55.9704 99.7367 59.7222C99.8099 61.4662 99.1068 61.8619 97.261 61.8619C85.8933 61.8033 74.5403 61.8326 63.1873 61.8326V61.9645" fill="#EE7149"/>
<path d="M30.2154 86.2493C30.2154 90.0158 27.1538 93.0788 23.389 93.0788C19.6242 93.0788 16.5625 90.0304 16.5625 86.2493C16.5625 82.4683 19.6095 79.4199 23.389 79.4199C27.1684 79.4199 30.2154 82.4683 30.2154 86.2493Z" fill="#DA7049"/>
<path d="M96.1529 88.535C96.1529 92.3014 93.1059 95.3644 89.3265 95.3644C85.547 95.3644 82.5 92.3161 82.5 88.535C82.5 84.7539 85.547 81.7056 89.3265 81.7056C93.1059 81.7056 96.1529 84.7539 96.1529 88.535Z" fill="#DA7049"/>
<path d="M75.4823 151.643C77.9873 148.947 79.2764 145.957 79.9796 142.792C80.0675 142.41 80.1407 142.015 80.1554 141.619C80.17 140.989 79.7892 140.535 78.9835 140.476C78.1778 140.432 77.709 140.828 77.6064 141.458C77.3867 142.953 76.9765 144.418 76.3612 145.825C74.9403 149.093 72.6843 151.805 68.6851 153.373C67.0738 154.003 62.9867 154.12 62.6351 154.12C60.9212 154.047 59.2073 153.959 57.4787 153.871C57.4787 153.798 57.464 153.71 57.4494 153.637C58.0793 153.475 58.6946 153.314 59.3245 153.168C66.3707 151.467 70.194 147.54 71.4245 141.766C71.6149 140.916 71.7175 140.051 72.1863 139.245C73.4901 136.973 76.3027 135.772 79.3643 136.197C82.4406 136.636 84.2278 138.38 84.4768 141.048C84.5208 141.458 84.5501 141.795 84.5501 142.176C84.5208 147.232 81.005 150.647 75.4677 151.614M95.5662 138.717C94.8191 138.307 94.1745 138.512 93.691 139.084C93.3688 139.479 93.0612 139.875 92.7096 140.271C90.9371 142.249 89.0326 144.125 86.5277 145.869C86.7474 144.755 86.9671 143.861 87.0697 142.967C87.4505 139.67 86.4984 136.827 82.7922 134.98C79.8917 133.529 75.4677 133.778 72.5672 135.522C70.0182 137.061 69.2565 139.304 68.773 141.707C67.1177 149.797 55.2667 154.618 46.1989 150.852C39.7827 148.185 34.7287 144.228 30.7002 139.391C30.2022 138.791 29.6455 138.248 28.6933 138.703C27.6679 139.201 27.9902 139.875 28.5322 140.535C33.4982 146.617 40.0023 151.233 48.3523 154.062C52.454 155.454 57.7277 156.113 61.1702 156.172C62.3128 156.201 64.3783 156.333 65.9311 156.172C74.4569 155.322 82.8947 152.215 89.3842 146.705C91.7574 144.682 93.984 142.63 95.8152 140.285C96.2693 139.699 96.2986 139.142 95.5515 138.732" fill="#EE7149"/>
<path d="M75.4822 151.642C77.9871 148.946 79.2763 145.956 79.9794 142.79C80.0673 142.395 80.1406 142.014 80.1552 141.618C80.1699 140.973 79.789 140.533 78.9833 140.475C78.1776 140.431 77.7088 140.827 77.6063 141.457C77.3866 142.952 76.9764 144.417 76.3465 145.824C74.9255 149.092 72.7721 152.097 68.6703 153.372C66.2679 154.119 65.1986 154.06 63.6897 154.104C63.2942 154.104 62.9865 154.104 62.6349 154.104C60.921 154.031 59.2071 153.943 57.4785 153.855C57.4785 153.782 57.4639 153.694 57.4492 153.621C58.0791 153.46 58.6944 153.298 59.3243 153.152C66.3705 151.452 70.1938 147.509 71.4244 141.75C71.6148 140.9 71.7174 140.035 72.1861 139.229C73.4899 136.958 76.3025 135.756 79.3642 136.181C82.4405 136.62 84.2716 138.364 84.4767 141.046C84.5353 141.589 84.5352 141.823 84.5352 142.058" fill="white"/>
<path d="M28.4861 137.824C29.9364 137.15 31.372 137.15 31.6943 137.824C32.0165 138.513 31.0937 139.612 29.6434 140.286C28.1932 140.961 26.7576 140.961 26.4353 140.286C26.113 139.598 27.0359 138.498 28.4861 137.81" fill="#DA7049"/>
<path d="M95.8215 138.158C97.345 138.671 98.3705 139.668 98.1361 140.386C97.8871 141.104 96.4661 141.265 94.9572 140.752C93.4337 140.239 92.4083 139.243 92.6427 138.525C92.8771 137.807 94.3127 137.645 95.8215 138.158Z" fill="#DA7049"/>
</svg>
